<svg width="562" height="187" viewBox="0 0 562 187" fill="none" xmlns="http://www.w3.org/2000/svg">
<path d="M71.8211 118.898C69.4999 118.898 67.2309 118.124 65.3009 116.673C63.3709 115.222 61.8666 113.16 60.9783 110.747C60.09 108.335 59.8576 105.68 60.3105 103.119C60.7633 100.557 61.881 98.2047 63.5223 96.3581L97.5631 58.0782C99.7841 55.7244 102.732 54.4363 105.783 54.4868C108.834 54.5373 111.748 55.9225 113.906 58.3487C116.065 60.7749 117.299 64.0514 117.346 67.4837C117.394 70.9159 116.251 74.2341 114.161 76.7347L80.1059 115.031C79.0206 116.259 77.7296 117.233 76.3076 117.897C74.8856 118.561 73.3607 118.901 71.8211 118.898Z" fill="#3525E6"/>
<path d="M54.7996 143.997C53.1166 145.89 50.9726 147.179 48.6386 147.7C46.3047 148.222 43.8857 147.954 41.6874 146.929C39.489 145.904 37.6101 144.169 36.2881 141.943C34.9662 139.717 34.2605 137.1 34.2605 134.423C34.2605 131.746 34.9662 129.129 36.2881 126.903C37.6101 124.677 39.489 122.942 41.6874 121.918C43.8857 120.893 46.3047 120.625 48.6386 121.146C50.9726 121.668 53.1166 122.957 54.7996 124.849C55.9192 126.105 56.8075 127.598 57.4136 129.241C58.0197 130.883 58.3317 132.645 58.3317 134.423C58.3317 136.202 58.0197 137.963 57.4136 139.606C56.8075 141.249 55.9192 142.741 54.7996 143.997Z" fill="#3525E6"/>
<path d="M12.2482 109.322C9.9299 109.319 7.66439 108.543 5.73741 107.093C3.81043 105.643 2.30825 103.583 1.42054 101.174C0.532836 98.7647 0.299379 96.1136 0.749423 93.5551C1.19947 90.9966 2.31289 88.6453 3.94936 86.7979L37.9902 48.5021C39.0665 47.2144 40.3617 46.183 41.799 45.469C43.2363 44.7549 44.7865 44.3729 46.3575 44.3453C47.9285 44.3178 49.4884 44.6455 50.9447 45.3088C52.4011 45.9722 53.7243 46.9577 54.8357 48.2071C55.9472 49.4564 56.8242 50.9441 57.4151 52.582C58.006 54.2198 58.2987 55.9744 58.2756 57.7418C58.2525 59.5092 57.9141 61.2534 57.2806 62.871C56.6472 64.4885 55.7316 65.9466 54.5879 67.1586L20.5471 105.454C19.4582 106.682 18.1645 107.655 16.7404 108.319C15.3162 108.983 13.7897 109.324 12.2482 109.322Z" fill="#3525E6"/>
<path d="M80.3294 38.6798C82.0117 36.7864 83.1571 34.3744 83.621 31.7487C84.0849 29.123 83.8463 26.4015 82.9354 23.9283C82.0246 21.4551 80.4823 19.3414 78.5037 17.8542C76.525 16.367 74.1989 15.5732 71.8193 15.5732C69.4397 15.5732 67.1134 16.367 65.1348 17.8542C63.1561 19.3414 61.6139 21.4551 60.703 23.9283C59.7922 26.4015 59.5536 29.123 60.0175 31.7487C60.4813 34.3744 61.6268 36.7864 63.3091 38.6798C64.4255 39.9393 65.752 40.9386 67.2123 41.6204C68.6726 42.3023 70.2382 42.6532 71.8193 42.6532C73.4004 42.6532 74.966 42.3023 76.4263 41.6204C77.8867 40.9386 79.2129 39.9393 80.3294 38.6798Z" fill="#3525E6"/>
<path d="M71.8211 118.898C69.4999 118.898 67.2309 118.124 65.3009 116.673C63.3709 115.222 61.8666 113.16 60.9783 110.747C60.09 108.335 59.8576 105.68 60.3105 103.119C60.7633 100.557 61.881 98.2047 63.5223 96.3581L97.5631 58.0782C99.7841 55.7244 102.732 54.4363 105.783 54.4868C108.834 54.5373 111.748 55.9225 113.906 58.3487C116.065 60.7749 117.299 64.0514 117.346 67.4837C117.394 70.9159 116.251 74.2341 114.161 76.7347L80.1059 115.031C79.0206 116.259 77.7296 117.233 76.3076 117.897C74.8856 118.561 73.3607 118.901 71.8211 118.898Z" fill="#3525E6"/>
<path d="M54.7996 143.997C53.1166 145.89 50.9726 147.179 48.6386 147.7C46.3047 148.222 43.8857 147.954 41.6874 146.929C39.489 145.904 37.6101 144.169 36.2881 141.943C34.9662 139.717 34.2605 137.1 34.2605 134.423C34.2605 131.746 34.9662 129.129 36.2881 126.903C37.6101 124.677 39.489 122.942 41.6874 121.918C43.8857 120.893 46.3047 120.625 48.6386 121.146C50.9726 121.668 53.1166 122.957 54.7996 124.849C55.9192 126.105 56.8075 127.598 57.4136 129.241C58.0197 130.883 58.3317 132.645 58.3317 134.423C58.3317 136.202 58.0197 137.963 57.4136 139.606C56.8075 141.249 55.9192 142.741 54.7996 143.997Z" fill="#3525E6"/>
<path d="M12.2482 109.322C9.9299 109.319 7.66439 108.543 5.73741 107.093C3.81043 105.643 2.30825 103.583 1.42054 101.174C0.532836 98.7647 0.299379 96.1136 0.749423 93.5551C1.19947 90.9966 2.31289 88.6453 3.94936 86.7979L37.9902 48.5021C39.0665 47.2144 40.3617 46.183 41.799 45.469C43.2363 44.7549 44.7865 44.3729 46.3575 44.3453C47.9285 44.3178 49.4884 44.6455 50.9447 45.3088C52.4011 45.9722 53.7243 46.9577 54.8357 48.2071C55.9472 49.4564 56.8242 50.9441 57.4151 52.582C58.006 54.2198 58.2987 55.9744 58.2756 57.7418C58.2525 59.5092 57.9141 61.2534 57.2806 62.871C56.6472 64.4885 55.7316 65.9466 54.5879 67.1586L20.5471 105.454C19.4582 106.682 18.1645 107.655 16.7404 108.319C15.3162 108.983 13.7897 109.324 12.2482 109.322Z" fill="#3525E6"/>
<path d="M80.3294 38.6798C82.0117 36.7864 83.1571 34.3744 83.621 31.7487C84.0849 29.123 83.8463 26.4015 82.9354 23.9283C82.0246 21.4551 80.4823 19.3414 78.5037 17.8542C76.525 16.367 74.1989 15.5732 71.8193 15.5732C69.4397 15.5732 67.1134 16.367 65.1348 17.8542C63.1561 19.3414 61.6139 21.4551 60.703 23.9283C59.7922 26.4015 59.5536 29.123 60.0175 31.7487C60.4813 34.3744 61.6268 36.7864 63.3091 38.6798C64.4255 39.9393 65.752 40.9386 67.2123 41.6204C68.6726 42.3023 70.2382 42.6532 71.8193 42.6532C73.4004 42.6532 74.966 42.3023 76.4263 41.6204C77.8867 40.9386 79.2129 39.9393 80.3294 38.6798Z" fill="#3525E6"/>
<path d="M189.29 134.262C195.038 134.262 200.505 133.28 205.692 131.318C210.738 129.355 215.224 125.851 219.009 121.084C222.654 116.318 224.616 110.43 224.616 103.421C224.616 94.1691 220.972 87.1599 213.822 82.2535C210.598 80.1507 203.869 77.0667 193.636 73.0014C187.187 70.4781 182.701 68.3753 180.318 66.6931C177.935 65.0109 176.814 62.7679 176.814 59.8241C176.814 56.74 177.935 54.3569 180.178 52.5345C182.421 50.8523 185.225 49.871 188.869 49.871C195.318 49.871 202.467 53.2355 210.598 59.6839L222.093 44.8244C211.719 36.4134 200.505 32.2079 188.449 32.2079C179.477 32.3481 171.907 35.1518 165.739 40.6189C159.571 46.0861 156.487 52.8149 156.487 60.6652C156.487 64.31 157.048 67.6744 158.169 70.7584C159.291 73.8425 160.833 76.3658 162.655 78.3283C164.337 80.2909 166.72 82.2535 169.524 83.9357C172.328 85.7581 174.991 87.1599 177.515 88.2814C180.038 89.4029 182.982 90.5243 186.627 91.6458C193.075 93.8887 197.561 95.9915 200.084 97.8139C202.608 99.7765 203.869 102.44 203.869 105.804C203.869 109.029 202.608 111.552 200.224 113.514C197.701 115.477 194.196 116.318 189.711 116.318C185.505 116.318 181.3 115.337 176.814 113.094C172.328 110.991 168.403 107.907 164.898 103.842L152.982 118.421C163.216 129.075 175.272 134.262 189.29 134.262ZM249.433 55.198C252.657 55.198 255.461 54.2167 257.704 51.9738C259.947 49.7309 261.068 47.0674 261.068 43.8431C261.068 40.7591 259.947 38.2358 257.704 35.9929C255.461 33.7499 252.657 32.6284 249.433 32.6284C246.069 32.6284 243.265 33.7499 241.022 35.9929C238.779 38.2358 237.798 40.7591 237.798 43.8431C237.798 47.0674 238.779 49.7309 241.022 51.9738C243.265 54.2167 246.069 55.198 249.433 55.198ZM240.041 133H258.405V64.4502H240.041V133ZM277.531 133H295.895V98.7952C295.895 92.9075 297.157 88.2814 299.821 84.917C302.484 81.5526 305.989 79.8704 310.334 79.8704C318.325 79.8704 322.39 85.8983 322.39 97.6737V133H340.754V98.7952C340.754 92.9075 342.016 88.2814 344.679 84.917C347.343 81.5526 350.707 79.8704 354.773 79.8704C362.623 79.8704 366.688 85.8983 366.688 97.6737V133H385.052V93.328C385.052 73.4219 376.922 63.4689 360.941 63.4689C350.567 63.4689 342.577 67.1136 336.969 74.263H336.689C332.764 67.1136 326.035 63.4689 316.502 63.4689C308.372 63.4689 301.503 66.8333 296.036 73.4219H295.895V64.4502H277.531V133ZM402.246 160.756H420.61V125.43L420.89 125.29C425.796 131.318 432.525 134.262 440.936 134.262C450.469 134.262 458.459 131.037 464.627 124.449C470.795 118 473.879 109.449 473.879 98.9354C473.879 88.7019 470.795 80.2909 464.627 73.5621C458.459 66.8333 450.749 63.4689 441.497 63.4689C432.806 63.4689 425.937 66.4127 420.89 72.3004H420.61V64.4502H402.246V160.756ZM437.712 117.72C432.525 117.72 428.18 116.038 424.815 112.533C421.451 109.169 419.769 104.683 419.769 99.0755C419.769 93.4682 421.311 88.9823 424.675 85.3375C428.039 81.6928 432.245 79.8704 437.572 79.8704C442.618 79.8704 446.824 81.6928 450.188 85.1973C453.553 88.7019 455.235 93.328 455.235 99.0755C455.235 104.543 453.553 109.029 450.329 112.533C446.964 116.038 442.759 117.72 437.712 117.72ZM512.326 134.262C520.457 134.262 527.185 131.178 532.512 124.729L532.793 124.869V133H551.297V64.4502H532.793V97.8139C532.793 104.122 531.251 109.029 528.307 112.533C525.363 116.038 521.858 117.72 517.653 117.72C513.167 117.72 510.083 116.599 508.12 114.075C506.158 111.552 505.317 107.206 505.317 101.038V64.4502H487.093V105.804C487.093 124.869 495.504 134.262 512.326 134.262Z" fill="#3525E6"/>
</svg>
